<svg xmlns="http://www.w3.org/2000/svg" viewBox="0 0 100 100" width="500" height="500" class="illustration"><defs><style>.cls-1{fill:#0099f5;}.cls-1,.cls-2,.cls-3,.cls-4{stroke:#231f20;}.cls-1,.cls-3,.cls-4{stroke-linejoin:bevel;stroke-width:1.5px;}.cls-2{fill:none;stroke-miterlimit:10;stroke-width:3px;}.cls-3{fill:#f0457d;}.cls-4{fill:#f8d366;}</style></defs><g id="Layer_2" data-name="Layer 2"><path class="cls-1" d="M28.29,39.47,24,39.16l6.88,21.77a5.12,5.12,0,0,0,4.81,3.39H70.91a5.11,5.11,0,0,0,4.85-3.52l6.31-17.47L43.31,40.55"></path><path class="cls-2" d="M77.91,64.32H35.69a5.12,5.12,0,0,1-4.81-3.39l-9-28.34A3.71,3.71,0,0,0,18.39,30H14.5a2.24,2.24,0,0,0-2.24,2.24v1.61"></path><circle class="cls-3" cx="43.95" cy="71.26" r="3.61"></circle><circle class="cls-3" cx="63.71" cy="71.26" r="3.61"></circle><rect class="cls-4" x="34.68" y="25.76" width="26.45" height="37.51"></rect><rect class="cls-4" x="52.51" y="50.13" width="19.84" height="13.14"></rect><rect class="cls-4" x="32.09" y="25.76" width="31.62" height="3.78"></rect><rect class="cls-4" x="50.82" y="50.13" width="23.21" height="3.78"></rect><line class="cls-1" x1="41.41" y1="40.41" x2="63.16" y2="41.97"></line></g></svg>