<svg id="Layer_1" data-name="Layer 1" xmlns="http://www.w3.org/2000/svg" viewBox="0 0 500 500" width="500" height="500" class="illustration"><rect x="109.77" y="57.12" width="292.27" height="372.05" rx="7.75" fill="#24285b"></rect><rect x="124.98" y="70.15" width="261.85" height="346.32" rx="3" fill="#f2f2f2"></rect><path d="M384.41,70.15h-17.3V395a2.42,2.42,0,0,1-2.42,2.42H125V414a2.42,2.42,0,0,0,2.42,2.42h257a2.42,2.42,0,0,0,2.42-2.42V72.57A2.42,2.42,0,0,0,384.41,70.15Z" fill="#c3c7c9" opacity="0.26"></path><rect x="200.29" y="45.76" width="111.22" height="41.16" rx="8.94" fill="#f9bb0d"></rect><path d="M123.48,460.25s1.65,11.85.35,11.54-5.74-10-5.74-10l1.73-4.64Z" fill="#24285b"></path><path d="M45.83,255.8,44.71,252a12.63,12.63,0,0,1,8.52-15.68l1-.29a12.63,12.63,0,0,1,15.69,8.52L71,248.34Z" fill="#ffd44d"></path><rect x="72.42" y="248.14" width="26.25" height="191.16" transform="matrix(0.96, -0.28, 0.28, 0.96, -94.04, 38.42)" fill="#f0457d"></rect><polygon points="45.84 255.79 71 248.34 73.19 255.73 74.71 260.86 79.38 276.63 54.21 284.08 49.54 268.31 48.02 263.18 45.84 255.79" fill="#24285b"></polygon><path d="M125.27,431.65l-1.39,30a6.26,6.26,0,0,0-5.29,1.85l-18.5-24.36Z" fill="#ffbeb3"></path><rect x="160.62" y="181.47" width="56.68" height="56.68" rx="6.55" fill="none" stroke="#24285b" stroke-miterlimit="10" stroke-width="6"></rect><line x1="243.85" y1="193.55" x2="310.57" y2="193.55" fill="none" stroke="#24285b" stroke-linecap="round" stroke-linejoin="round" stroke-width="6"></line><line x1="243.85" y1="209.81" x2="342.23" y2="209.81" fill="none" stroke="#24285b" stroke-linecap="round" stroke-linejoin="round" stroke-width="6"></line><line x1="243.85" y1="226.06" x2="342.23" y2="226.06" fill="none" stroke="#24285b" stroke-linecap="round" stroke-linejoin="round" stroke-width="6"></line><polyline points="178.4 209.53 187.33 218.56 199.51 201.05" fill="none" stroke="#24285b" stroke-linecap="round" stroke-linejoin="round" stroke-width="6"></polyline><rect x="160.62" y="284.79" width="56.68" height="56.68" rx="6.55" fill="none" stroke="#24285b" stroke-miterlimit="10" stroke-width="6"></rect><line x1="243.85" y1="296.87" x2="310.57" y2="296.87" fill="none" stroke="#24285b" stroke-linecap="round" stroke-linejoin="round" stroke-width="6"></line><line x1="243.85" y1="313.13" x2="342.23" y2="313.13" fill="none" stroke="#24285b" stroke-linecap="round" stroke-linejoin="round" stroke-width="6"></line><line x1="243.85" y1="329.38" x2="342.23" y2="329.38" fill="none" stroke="#24285b" stroke-linecap="round" stroke-linejoin="round" stroke-width="6"></line><polyline points="178.4 312.85 187.33 321.88 199.51 304.37" fill="none" stroke="#24285b" stroke-linecap="round" stroke-linejoin="round" stroke-width="6"></polyline><rect x="180.87" y="103.17" width="144.68" height="28.6" fill="#0099f5"></rect></svg>