<svg xmlns="http://www.w3.org/2000/svg" viewBox="0 0 500 500" width="500" height="500" class="illustration"><defs><style>.cls-1,.cls-5{isolation:isolate;}.cls-2{fill:#f2f2f2;}.cls-3{fill:#e2e2e2;}.cls-4{fill:#0099f5;}.cls-5{opacity:0.09;}.cls-6{fill:#24285b;}.cls-7{fill:#ffbeb3;}.cls-8{fill:#f9a498;}.cls-9{fill:#efe8e4;}.cls-13,.cls-9{mix-blend-mode:multiply;}.cls-10{fill:#9c5631;}.cls-11{opacity:0.5;mix-blend-mode:soft-light;}.cls-12{fill:#fff;}.cls-13{opacity:0.1;}.cls-14{fill:#afaaa8;}.cls-15{fill:none;stroke:#fff;stroke-linecap:round;stroke-linejoin:round;stroke-width:9px;}.cls-16{fill:#ffd44d;}.cls-17{fill:#f9bb0d;}</style></defs><title>Customer reviews</title><g class="cls-1"><g id="Layer_1" data-name="Layer 1"><path class="cls-2" d="M423.05,125.81H76.84a17.91,17.91,0,0,0-17.91,17.91v190.6a17.91,17.91,0,0,0,17.91,17.92h39.59l14.91,23a2.36,2.36,0,0,0,3.91.09l16.65-23.09H423.05A17.92,17.92,0,0,0,441,334.32V143.72A17.91,17.91,0,0,0,423.05,125.81Z"></path><path class="cls-3" d="M66.6,341.51A17.89,17.89,0,0,1,60,340.26a17.92,17.92,0,0,0,16.91,12h39.48l-7-10.73Z"></path><path class="cls-3" d="M429.72,127.05a18,18,0,0,1,1,5.94v190.6a17.92,17.92,0,0,1-17.92,17.92H141.66L125,364.6a2.61,2.61,0,0,1-.27.3l6.71,10.34a2.36,2.36,0,0,0,3.91.09L152,352.24H423.16a17.91,17.91,0,0,0,17.91-17.92V143.72A17.91,17.91,0,0,0,429.72,127.05Z"></path><path class="cls-4" d="M180.7,245.06v4.36H96.29c-2.08-19.91,16.5-32,34.68-32,9.38.11,22.56-.95,31.19,3.23C172.08,224.68,180.78,233.88,180.7,245.06Z"></path><path class="cls-5" d="M180.7,245.06c.08-11.18-8.62-20.38-18.54-24.42-8.63-4.18-21.81-3.12-31.19-3.23a41.44,41.44,0,0,0-16.44,3.37,38.32,38.32,0,0,1,4.15-.21c9.38.1,22.56-.95,31.19,3.22,9.92,4,18.62,13.24,18.54,24.42v1.21H180.7Z"></path><path class="cls-5" d="M137.62,231.71l-8.42,5.11a1,1,0,0,1-1.4-.36l-9.11-15.62a1,1,0,0,1,.41-1.41l8.38-4.39a1,1,0,0,1,1.33.37l9.15,14.9A1,1,0,0,1,137.62,231.71Z"></path><path class="cls-5" d="M139.37,231.71l8.43,5.11a1,1,0,0,0,1.39-.36l9.11-15.62a1,1,0,0,0-.4-1.41L149.51,215a1,1,0,0,0-1.33.37L139,230.31A1,1,0,0,0,139.37,231.71Z"></path><path class="cls-6" d="M146.32,230.62l-7.82-2.87h0l-7.82,2.87,5.41,9.54-2,9.25h8.89l-2-9.25Z"></path><path class="cls-7" d="M138.5,229.22a9.33,9.33,0,0,1-9.33-9.33V195.11c.21-12.25,18.44-12.27,18.65,0v24.78A9.33,9.33,0,0,1,138.5,229.22Z"></path><path class="cls-8" d="M147.37,222.76c-2.65,8.56-15.18,8.46-17.75,0C133.39,228.17,143.44,228.36,147.37,222.76Z"></path><path class="cls-4" d="M137.7,229.7,130,234.38a.92.92,0,0,1-1.28-.32l-8.35-14.32a.94.94,0,0,1,.37-1.29l7.69-4a.93.93,0,0,1,1.22.33L138,228.42A.93.93,0,0,1,137.7,229.7Z"></path><path class="cls-4" d="M139.3,229.7l7.72,4.68a.92.92,0,0,0,1.28-.32l8.35-14.32a.93.93,0,0,0-.37-1.29l-7.68-4a.94.94,0,0,0-1.23.33L139,228.42A.93.93,0,0,0,139.3,229.7Z"></path><path class="cls-7" d="M119.94,186a4.52,4.52,0,0,0-5.43-3.64c-2.88.63-2.89,3.32-2.46,5.53,0,.12,1.45,6.09,2.28,7.35s2,3.65,4.07,3c1.35-.45,2.14-2.84,2.45-4.57S119.94,186,119.94,186Z"></path><path class="cls-7" d="M156.66,185.86a4.52,4.52,0,0,1,5.43-3.64c2.88.63,3.17,3.4,2.73,5.61,0,.12-1.56,5.65-2.28,7.35-.59,1.4-2.2,3.87-4.3,3-1.31-.54-2.18-3-2.5-4.69S156.66,185.86,156.66,185.86Z"></path><path class="cls-7" d="M159.48,169.32c0-9.59-5.94-19.21-21.67-19.21s-21.43,10.53-21.43,20.12c0,.5,0,26.58,3,32.56s11.46,12.1,19,12.13c8.2,0,15.58-5.24,19-12.13S159.48,169.32,159.48,169.32Z"></path><path class="cls-8" d="M122.43,171.48l.41.3c.43.4-1.73,5.22-1.1,5.24,3.12.65,6.85-6.09,9.9-5.15,5.36,1.67,15.43,15.18,25.32,14.91,2.6-2.5,2.52-17.46,2.52-17.46,0-9.59-5.94-19.21-21.67-19.21-13,0-19.17,7.23-20.89,15.16A9.84,9.84,0,0,1,122.43,171.48Z"></path><path class="cls-9" d="M156.67,204.06c0-.06.07-.1.1-.16-.17.13-.36.24-.54.37Z"></path><path class="cls-8" d="M141.91,212.89c-7.51,0-15.91-6.13-19-12.12s-3-32.06-3-32.56a20.84,20.84,0,0,1,3.88-12.39,22.05,22.05,0,0,1,1-2.3c-6,3.88-8.42,10.48-8.42,16.71,0,.5,0,26.58,3,32.56s11.46,12.1,19,12.13A20.53,20.53,0,0,0,150,211.17,19.79,19.79,0,0,1,141.91,212.89Z"></path><path class="cls-10" d="M163,167c-1.93-10.56-10.55-18.21-24.64-18.12s-23.3,8.7-25.14,18.47a83.58,83.58,0,0,0-1.08,16.88c2.38-2,3.36-2.21,4.51-1.75.79,8.62,2.67,8.49,2.67,8.49s.17-5.86.55-9.73,6.72-4.57,9.89-11.26c10-.43,16.36,12.41,27.35,13.11-1.09,6.36,1.32,8.89,1.32,8.89s.26-5.25,1.14-7.74a2.66,2.66,0,0,1,4.22-1.23A56,56,0,0,0,163,167Z"></path><g class="cls-11"><path class="cls-12" d="M163,167c-1.93-10.56-10.55-18.21-24.64-18.12-12.34.07-21,6.72-24.13,15,4-6.77,11.88-11.85,22.65-11.92,14.09-.09,22.71,7.56,24.65,18.12a64.72,64.72,0,0,1,1,12.44,2.78,2.78,0,0,1,1.21.54A56,56,0,0,0,163,167Z"></path></g><g class="cls-13"><path class="cls-14" d="M129.75,165c-3.17,6.69-13.37,13-17.62,14.24,0-.21,0-.47,0-.7a56.49,56.49,0,0,0,0,5.72c2.38-2,3.36-2.21,4.51-1.75.79,8.62,2.67,8.49,2.67,8.49s.17-5.86.55-9.73,6.72-4.57,9.89-11.26c10-.43,16.31,12.29,27.21,13.09C148.92,180.32,139.77,164.57,129.75,165Z"></path></g><line class="cls-15" x1="199.84" y1="221.4" x2="302.27" y2="221.4"></line><line class="cls-15" x1="404.7" y1="182.87" x2="199.84" y2="182.87"></line><path class="cls-16" d="M109.3,270.56l6.23,12.62a2.46,2.46,0,0,0,1.84,1.34l13.93,2a2.45,2.45,0,0,1,1.36,4.18l-10.08,9.82a2.45,2.45,0,0,0-.71,2.16l2.38,13.88a2.45,2.45,0,0,1-3.55,2.58l-12.46-6.55a2.4,2.4,0,0,0-2.27,0l-12.46,6.55A2.45,2.45,0,0,1,90,316.58l2.38-13.88a2.45,2.45,0,0,0-.71-2.16l-10.07-9.82a2.45,2.45,0,0,1,1.35-4.18l13.93-2a2.44,2.44,0,0,0,1.84-1.34l6.23-12.62A2.45,2.45,0,0,1,109.3,270.56Z"></path><path class="cls-17" d="M132.66,290.72a2.45,2.45,0,0,0-1.36-4.17l-6.34-.92-7,6.82a2.43,2.43,0,0,0-.7,2.17l2.38,13.87a2.45,2.45,0,0,1-3.55,2.58l-12.46-6.55a2.42,2.42,0,0,0-2.28,0L91.1,309.91,90,316.58a2.44,2.44,0,0,0,3.55,2.58L106,312.61a2.46,2.46,0,0,1,2.27,0l12.46,6.55a2.44,2.44,0,0,0,3.55-2.58l-2.38-13.87a2.45,2.45,0,0,1,.71-2.16Z"></path><path class="cls-16" d="M180.58,270.56l6.23,12.62a2.43,2.43,0,0,0,1.84,1.33l13.93,2a2.45,2.45,0,0,1,1.36,4.17l-10.08,9.83a2.45,2.45,0,0,0-.71,2.16l2.38,13.87a2.44,2.44,0,0,1-3.55,2.58l-12.45-6.55a2.48,2.48,0,0,0-2.28,0l-12.46,6.55a2.45,2.45,0,0,1-3.55-2.58l2.38-13.87a2.44,2.44,0,0,0-.7-2.16l-10.08-9.83a2.44,2.44,0,0,1,1.35-4.17l13.93-2a2.41,2.41,0,0,0,1.84-1.33l6.23-12.62A2.45,2.45,0,0,1,180.58,270.56Z"></path><path class="cls-17" d="M203.94,290.72a2.45,2.45,0,0,0-1.36-4.18l-6.34-.92-7,6.83a2.42,2.42,0,0,0-.7,2.16l2.38,13.87a2.45,2.45,0,0,1-3.55,2.58l-12.46-6.54a2.42,2.42,0,0,0-2.28,0l-10.24,5.38-1.15,6.68a2.45,2.45,0,0,0,3.55,2.58l12.46-6.55a2.48,2.48,0,0,1,2.28,0L192,319.16a2.45,2.45,0,0,0,3.55-2.58l-2.38-13.87a2.46,2.46,0,0,1,.71-2.17Z"></path><path class="cls-16" d="M251.86,270.55l6.23,12.62a2.43,2.43,0,0,0,1.84,1.34l13.93,2a2.44,2.44,0,0,1,1.36,4.17l-10.08,9.82a2.48,2.48,0,0,0-.71,2.17l2.38,13.87a2.45,2.45,0,0,1-3.55,2.58l-12.45-6.55a2.48,2.48,0,0,0-2.28,0l-12.46,6.55a2.45,2.45,0,0,1-3.55-2.58l2.38-13.87a2.47,2.47,0,0,0-.7-2.17l-10.08-9.82a2.44,2.44,0,0,1,1.35-4.17l13.93-2a2.4,2.4,0,0,0,1.84-1.34l6.23-12.62A2.45,2.45,0,0,1,251.86,270.55Z"></path><path class="cls-17" d="M275.22,290.72a2.45,2.45,0,0,0-1.36-4.18l-6.34-.92-7,6.83a2.44,2.44,0,0,0-.7,2.16l2.38,13.87a2.45,2.45,0,0,1-3.55,2.58l-12.46-6.55a2.48,2.48,0,0,0-2.28,0l-10.24,5.39-1.15,6.68a2.45,2.45,0,0,0,3.55,2.58l12.46-6.55a2.42,2.42,0,0,1,2.28,0l12.45,6.55a2.45,2.45,0,0,0,3.55-2.58l-2.38-13.87a2.46,2.46,0,0,1,.71-2.17Z"></path><path class="cls-16" d="M323.14,270.55l6.23,12.62a2.43,2.43,0,0,0,1.84,1.34l13.93,2a2.45,2.45,0,0,1,1.36,4.17l-10.08,9.82a2.48,2.48,0,0,0-.71,2.17l2.38,13.87a2.44,2.44,0,0,1-3.55,2.58l-12.45-6.55a2.48,2.48,0,0,0-2.28,0l-12.46,6.55a2.45,2.45,0,0,1-3.55-2.58l2.38-13.87a2.47,2.47,0,0,0-.7-2.17l-10.08-9.82a2.45,2.45,0,0,1,1.35-4.17l13.93-2a2.4,2.4,0,0,0,1.84-1.34l6.23-12.62A2.45,2.45,0,0,1,323.14,270.55Z"></path><path class="cls-17" d="M346.5,290.72a2.45,2.45,0,0,0-1.36-4.18l-6.34-.92-7,6.83a2.44,2.44,0,0,0-.7,2.16l2.38,13.87a2.45,2.45,0,0,1-3.55,2.58l-12.46-6.55a2.48,2.48,0,0,0-2.28,0L305,309.9l-1.15,6.68a2.45,2.45,0,0,0,3.55,2.58l12.46-6.55a2.42,2.42,0,0,1,2.28,0l12.45,6.55a2.45,2.45,0,0,0,3.55-2.58l-2.38-13.87a2.46,2.46,0,0,1,.71-2.17Z"></path><path class="cls-3" d="M394.42,270.55l6.23,12.62a2.43,2.43,0,0,0,1.84,1.34l13.93,2a2.44,2.44,0,0,1,1.36,4.17l-10.08,9.82a2.44,2.44,0,0,0-.7,2.17l2.37,13.87a2.45,2.45,0,0,1-3.55,2.58l-12.45-6.55a2.48,2.48,0,0,0-2.28,0l-12.46,6.55a2.45,2.45,0,0,1-3.55-2.58l2.38-13.87a2.47,2.47,0,0,0-.7-2.17l-10.08-9.82a2.44,2.44,0,0,1,1.35-4.17l13.93-2a2.4,2.4,0,0,0,1.84-1.34L390,270.55A2.45,2.45,0,0,1,394.42,270.55Z"></path><path class="cls-3" d="M417.78,290.72a2.45,2.45,0,0,0-1.36-4.18l-6.34-.92-7,6.83a2.44,2.44,0,0,0-.7,2.16l2.38,13.87a2.45,2.45,0,0,1-3.55,2.58l-12.46-6.55a2.48,2.48,0,0,0-2.28,0l-10.24,5.39-1.15,6.68a2.45,2.45,0,0,0,3.55,2.58l12.46-6.55a2.42,2.42,0,0,1,2.28,0l12.45,6.55a2.45,2.45,0,0,0,3.55-2.58L407,302.71a2.43,2.43,0,0,1,.7-2.17Z"></path></g></g></svg>