<svg id="Layer_1" data-name="Layer 1" xmlns="http://www.w3.org/2000/svg" viewBox="0 0 500 500" width="500" height="500" class="illustration"><defs><style>.cls-1{fill:#9c5631;}.cls-2{fill:#d89479;}.cls-3{fill:#c18063;}.cls-4{fill:#ffd44d;}.cls-5{fill:#f9bb0d;}.cls-6{fill:#24285b;}</style></defs><title>ECommerce</title><polygon class="cls-1" points="48.2 120.13 48.2 342.38 250 419.72 250 200.95 48.2 120.13"></polygon><polygon class="cls-2" points="454.42 120.13 250 200.95 250 419.72 454.42 337.66 454.42 120.13"></polygon><polygon class="cls-3" points="48.2 120.13 250 35.59 454.42 120.13 250 200.95 48.2 120.13"></polygon><polygon class="cls-4" points="380.79 150.44 175.26 67.76 127.25 87.02 332.77 169.69 380.79 150.44"></polygon><path class="cls-5" d="M376.14,285l-33.2,13.31a7.41,7.41,0,0,1-10.17-6.88V169.69l48-19.25v127.7A7.41,7.41,0,0,1,376.14,285Z"></path><path class="cls-6" d="M305.54,403.44v29h-158a14.5,14.5,0,0,1-14.5-14.5h0a14.5,14.5,0,0,1,14.5-14.5Z"></path><path class="cls-6" d="M339.31,416a14.47,14.47,0,0,1-3.76,9.74l-31.7,35a14.5,14.5,0,1,1-21.48-19.48L305.24,416l-22.87-25.23a14.5,14.5,0,1,1,21.48-19.48l31.7,35A14.44,14.44,0,0,1,339.31,416Z"></path></svg>