<svg id="Layer_1" data-name="Layer 1" xmlns="http://www.w3.org/2000/svg" viewBox="0 0 500 500" width="500" height="500" class="illustration"><rect x="51.6" y="146.59" width="267.01" height="209.87" rx="12.41" fill="#ffd44d"></rect><path d="M443.88,356.46H332.28a13.67,13.67,0,0,1-13.67-13.67V231.18a13.67,13.67,0,0,1,13.67-13.67h61.36a13.68,13.68,0,0,1,10.24,4.61l50.24,56.8a13.67,13.67,0,0,1,3.43,9.06v54.81A13.67,13.67,0,0,1,443.88,356.46Z" fill="#f0457d"></path><rect x="51.6" y="340.68" width="405.96" height="27.69" fill="#0099f5"></rect><path d="M412.51,279.17H343.92a7.18,7.18,0,0,1-7.18-7.18V246.73a7.19,7.19,0,0,1,7.18-7.18h45.46a7.2,7.2,0,0,1,5.3,2.33l23.13,25.27A7.18,7.18,0,0,1,412.51,279.17Z" fill="#fff"></path><rect x="112.42" y="196.03" width="34.6" height="91.51" rx="12" fill="#f9bb0d"></rect><rect x="167.8" y="196.03" width="34.6" height="91.51" rx="12" fill="#f9bb0d"></rect><rect x="224.58" y="196.03" width="34.6" height="91.51" rx="12" fill="#f9bb0d"></rect><circle cx="114.71" cy="368.37" r="31.19" fill="#e2e2e2" stroke="#24285b" stroke-miterlimit="10" stroke-width="20"></circle><circle cx="196.14" cy="368.37" r="31.19" fill="#e2e2e2" stroke="#24285b" stroke-miterlimit="10" stroke-width="20"></circle><circle cx="382.78" cy="368.37" r="31.19" fill="#e2e2e2" stroke="#24285b" stroke-miterlimit="10" stroke-width="20"></circle><rect x="339.16" y="296.1" width="19.16" height="10.97" rx="5.02" fill="#ffd44d"></rect><path d="M442.66,300.38h14.9a0,0,0,0,1,0,0v29.3a0,0,0,0,1,0,0h-14.9a5.19,5.19,0,0,1-5.19-5.19V305.57A5.19,5.19,0,0,1,442.66,300.38Z" fill="#e2e2e2"></path></svg>