<svg xmlns="http://www.w3.org/2000/svg" viewBox="0 0 100 100" width="500" height="500" class="illustration"><defs><style>.cls-1{fill:#0099f5;}.cls-1,.cls-3,.cls-4,.cls-5{stroke:#231f20;stroke-linejoin:bevel;stroke-width:1.5px;}.cls-2,.cls-5{fill:#ffd44d;}.cls-3{fill:none;}.cls-4{fill:#f0457d;}</style></defs><g id="Layer_2" data-name="Layer 2"><circle class="cls-1" cx="50" cy="50" r="24.44"></circle><path class="cls-2" d="M68,58.35c-.82.81-.25-.79-1.44-.35s-2.58,2.15-3.8,2.56c-1.39.47-2.16.6-2.52,1.24,0,0-2,3.45-1.7,3.81S62,64,62,64.94s-.71,2.32,1.5,1,3.85-2.78,4.57-5.3S68.86,57.53,68,58.35Z"></path><path class="cls-2" d="M59.4,52.52c-.51,0-1.47-2.06-1.63-1a4.87,4.87,0,0,1,1.17,2c.36,1.25.81,2.34,1.33,2.34s1.13-.85.48-1.73-.64-1.17-.52-1.29a2,2,0,0,0-.45-1.93c-.68-.85-.76-.85-.76-1.41,0-.25,0-.64-.07-1,.84,1,1.66,1.86,2.09,1.67.63-.3,1.75-1.91,1.05-3s-1.94-2.18.22-2.39S65,41.66,63.7,40.33s1.76-3.37-.14-5.19.84-4.29-1.05-5.05-7.58-.28-10.31-1.34-3.51-.28-6.32.57-3.93-.43-5.47-.08-4.07,1.61-4.21,3.09-2,1.05-3,2.53S30.53,37.36,30.7,39h0a12.19,12.19,0,0,0-3.17,7.6c0,4.32.41,4.4,1.22,4.89s2.61.33,2.61,1.8,1.23,3.42,2.53,5.63,4.24,7.5,5.63,6.28,2-4.82.65-7.18-.08-3.43,1.39-5.84,1.3-3.3-.49-3.62c-1.38-.26-2.28-3.77-3.19-5.92a.7.7,0,0,1,.57.32c.42.63,1.33,4.42,2.8,4.7s4.42-2.88,3.3-3.23-3-2.37-2.67-3.36a7.34,7.34,0,0,0,4.7,2.25c2.74.07,2.33,2.25,3.51,4.56s1.26,2.6,2,2,.56-2.66,1.68-3.78,2.78-.71,3.93.84l.54.72h0s.26,2.65.62,2.85S59.92,52.56,59.4,52.52ZM37.07,41.24c-1.23-1.22-3.67-.41-4.32-1.3l-.36-.5c.35-.25.61-.58.58-.82-.07-.68-.14-1.73,1.05-1.87s.57.56,1.48,1.19,3.09-.16,3.09,1.08A2.12,2.12,0,0,1,37.07,41.24Z"></path><path class="cls-2" d="M63.58,52c-.47.33-1.73.68-1.7,1.09,0,0,0,1.53.44,1.89s1.25.58,1.52.2S65.11,53.39,65,53s-.49-.71-.16-1.09-.12-1.14-.37-1.11S64,51.63,63.58,52Z"></path><path class="cls-2" d="M63,56.38c-1-.38-2.47-.67-2.36,0,0,0,1.41.41,2.5.6s2.93.22,2.71-.16S64,56.76,63,56.38Z"></path><path class="cls-2" d="M65.68,54s-.67-.11-.86.21-.61,1.2-.4,1.5.54-.87.6-.57.34,1.08.48.43,0-1,.18-1.09S66.08,54,65.68,54Z"></path><path class="cls-2" d="M65.47,53.45s1-.13,1.11-.35S64.9,53.13,65.47,53.45Z"></path><path class="cls-2" d="M70.14,56.3c.37-.54.1-1.11-.22-1.71s-.65,0-1.11-.13-.63-1.34-1.2-.48a3.62,3.62,0,0,0,.41.61c.22.25-.14.63.32,1s-.08.9,0,1.2.54.73.82.3.49-.41.49,0,.19.87.49.46S69.76,56.84,70.14,56.3Z"></path><polyline class="cls-3" points="18.73 46.23 18.73 68.05 50 86.11 81.27 68.05 81.27 31.95 50 13.89 18.73 31.95 18.73 38.99"></polyline><circle class="cls-4" cx="81.27" cy="67.87" r="2.73"></circle><circle class="cls-5" cx="81.27" cy="31.76" r="2.73"></circle><circle class="cls-4" cx="50" cy="13.89" r="2.73"></circle><circle class="cls-5" cx="50" cy="86.11" r="2.73"></circle><circle class="cls-5" cx="18.73" cy="31.76" r="2.73"></circle><circle class="cls-4" cx="18.73" cy="67.87" r="2.73"></circle><line class="cls-1" x1="71.47" y1="62.21" x2="81.27" y2="67.87"></line><line class="cls-1" x1="18.73" y1="31.76" x2="28.91" y2="37.64"></line><line class="cls-1" x1="28.51" y1="62.22" x2="18.73" y2="67.87"></line><line class="cls-1" x1="81.27" y1="31.76" x2="74.96" y2="35.4"></line><line class="cls-1" x1="50" y1="13.89" x2="50" y2="25.56"></line><line class="cls-1" x1="50" y1="86.11" x2="50" y2="74.44"></line></g></svg>