<svg id="Layer_1" data-name="Layer 1" xmlns="http://www.w3.org/2000/svg" viewBox="0 0 500 500" width="500" height="500" class="illustration"><defs><style>.cls-1{fill:#24285b;}.cls-2{fill:#e2e2e2;}.cls-3{fill:#f2f2f2;}.cls-4{fill:#0099f5;}.cls-5{fill:#0086f4;}.cls-6{fill:#ffbeb3;}.cls-7{fill:#fcb3a9;}.cls-8{fill:#11163d;}.cls-9{fill:#f9bb0d;}.cls-10{fill:#f0457d;}.cls-11{fill:#db2868;}.cls-12{fill:#ffd44d;}</style></defs><title>Customer reviews</title><rect class="cls-1" x="120" y="43.5" width="260" height="413" rx="31.58"></rect><rect class="cls-2" x="134.57" y="61.55" width="231.43" height="379.03" rx="31.58"></rect><rect class="cls-3" x="134.08" y="60.21" width="208.92" height="370.29" rx="31.58"></rect><path class="cls-1" d="M183,53.5H316a0,0,0,0,1,0,0v7.61A26.39,26.39,0,0,1,289.61,87.5H209.39A26.39,26.39,0,0,1,183,61.11V53.5A0,0,0,0,1,183,53.5Z"></path><circle class="cls-4" cx="336.08" cy="174.01" r="77.05"></circle><path class="cls-5" d="M384,113.65A77,77,0,0,1,272,216.86,77,77,0,1,0,384,113.65Z"></path><path class="cls-6" d="M387.51,164.48v-.6a7.23,7.23,0,0,0-7.23-7.23H358.19l-.23-.12v-21.2a7.77,7.77,0,0,0-7.78-7.77h-.64a7.77,7.77,0,0,0-7.77,7.77v.07a32.22,32.22,0,0,1-12.13,25.19l-5,4H310.54a1,1,0,0,0-1,1v43.65a1,1,0,0,0,.95,1h12a20.23,20.23,0,0,0,15.1,6.74h42a7.23,7.23,0,0,0,7.23-7.22v-.6a7.23,7.23,0,0,0-7.22-7.23H380a7.23,7.23,0,0,0,7.23-7.23V194a7.23,7.23,0,0,0-7.23-7.23h-.58a7.23,7.23,0,0,0,7.23-7.23v-.59a7.23,7.23,0,0,0-7.23-7.23h.86A7.23,7.23,0,0,0,387.51,164.48Z"></path><path class="cls-7" d="M313,205.65h12.39a21.09,21.09,0,0,0,15.46,6.74h40.85a7.52,7.52,0,0,0,5-1.91,7.54,7.54,0,0,1-7.45,6.38H338.41A21.05,21.05,0,0,1,323,210.12H310.56a1,1,0,0,1-1-1V165.55a1,1,0,0,1,1-1H312v40.1A1,1,0,0,0,313,205.65Z"></path><path class="cls-7" d="M378.13,167.65a8.28,8.28,0,0,0,8.25-7.44,7.54,7.54,0,0,1,1.13,4h0a7.53,7.53,0,0,1-7.53,7.53h-8.63a4.05,4.05,0,0,1,4-4Z"></path><path class="cls-7" d="M377.82,182a8.3,8.3,0,0,0,8-6.19,7.48,7.48,0,0,1,.81,3.4h0a7.53,7.53,0,0,1-7.53,7.52h-9a4.73,4.73,0,0,1,4.73-4.73Z"></path><path class="cls-7" d="M378.4,197.08a8.29,8.29,0,0,0,8-6.18,7.43,7.43,0,0,1,.81,3.39h0a7.53,7.53,0,0,1-7.53,7.53h-9a4.74,4.74,0,0,1,4.73-4.74Z"></path><rect class="cls-1" x="284.65" y="160.08" width="34.73" height="53.57" rx="3"></rect><path class="cls-8" d="M318.35,160.08h-6.52v47a1,1,0,0,1-1,1H284.65v4.47a1,1,0,0,0,1,1h32.67a1,1,0,0,0,1-1V161.11A1,1,0,0,0,318.35,160.08Z"></path><rect class="cls-9" x="365.71" y="127.88" width="3.22" height="9.99" rx="1.61" transform="translate(412.9 520.81) rotate(-116.59)"></rect><rect class="cls-9" x="366.6" y="138.18" width="3.22" height="9.99" rx="1.61" transform="translate(79.78 413.14) rotate(-64.35)"></rect><path class="cls-10" d="M20.92,276.49H270.8a12.93,12.93,0,0,1,12.93,12.93V372a12.93,12.93,0,0,1-12.93,12.93H242.23l-10.77,16.6a1.71,1.71,0,0,1-2.82.07l-12-16.67H20.92A12.93,12.93,0,0,1,8,372V289.42A12.93,12.93,0,0,1,20.92,276.49Z"></path><path class="cls-11" d="M278.19,377.18a13,13,0,0,0,4.73-.9,12.93,12.93,0,0,1-12.2,8.64H242.23l5-7.74Z"></path><path class="cls-11" d="M16.11,277.39a12.72,12.72,0,0,0-.73,4.29v82.56a12.93,12.93,0,0,0,12.93,12.94H224l12,16.67a2,2,0,0,0,.2.21l-4.85,7.46a1.71,1.71,0,0,1-2.82.07l-12-16.67H20.84A12.93,12.93,0,0,1,7.91,372V289.42A12.93,12.93,0,0,1,16.11,277.39Z"></path><path class="cls-2" d="M227.31,209.3H156a4.5,4.5,0,0,1,0-9h71.29a4.5,4.5,0,0,1,0,9Z"></path><path class="cls-2" d="M235.47,181.5H156a4.5,4.5,0,1,1,0-9h79.45a4.5,4.5,0,1,1,0,9Z"></path><path class="cls-12" d="M79.69,306.59l6,12.09A2.34,2.34,0,0,0,87.42,320l13.34,1.94a2.35,2.35,0,0,1,1.3,4l-9.65,9.4a2.34,2.34,0,0,0-.68,2.08L94,350.66a2.34,2.34,0,0,1-3.4,2.47l-11.93-6.27a2.34,2.34,0,0,0-2.18,0l-11.93,6.27a2.34,2.34,0,0,1-3.4-2.47l2.28-13.28a2.34,2.34,0,0,0-.68-2.08l-9.65-9.4a2.35,2.35,0,0,1,1.3-4L67.76,320a2.34,2.34,0,0,0,1.76-1.28l6-12.09A2.34,2.34,0,0,1,79.69,306.59Z"></path><path class="cls-9" d="M102.06,325.9a2.34,2.34,0,0,0-1.3-4L94.69,321,88,327.56a2.32,2.32,0,0,0-.68,2.07l2.28,13.29a2.34,2.34,0,0,1-3.4,2.47l-11.93-6.27a2.34,2.34,0,0,0-2.18,0l-9.81,5.15-1.1,6.4a2.34,2.34,0,0,0,3.4,2.47l11.93-6.27a2.34,2.34,0,0,1,2.18,0l11.93,6.27a2.34,2.34,0,0,0,3.4-2.47l-2.28-13.28a2.33,2.33,0,0,1,.68-2.08Z"></path><path class="cls-12" d="M148,306.59l6,12.09a2.34,2.34,0,0,0,1.77,1.28L169,321.9a2.34,2.34,0,0,1,1.29,4l-9.65,9.41a2.33,2.33,0,0,0-.67,2.07l2.28,13.28a2.34,2.34,0,0,1-3.4,2.47L147,346.86a2.34,2.34,0,0,0-2.18,0l-11.93,6.27a2.35,2.35,0,0,1-3.41-2.47l2.28-13.28a2.33,2.33,0,0,0-.67-2.07l-9.65-9.41a2.34,2.34,0,0,1,1.3-4L136,320a2.34,2.34,0,0,0,1.77-1.28l6-12.09A2.35,2.35,0,0,1,148,306.59Z"></path><path class="cls-9" d="M170.32,325.9a2.33,2.33,0,0,0-1.29-4L163,321l-6.71,6.54a2.34,2.34,0,0,0-.67,2.07l2.28,13.29a2.35,2.35,0,0,1-3.4,2.47l-11.93-6.27a2.36,2.36,0,0,0-2.19,0l-9.81,5.16-1.1,6.39a2.35,2.35,0,0,0,3.41,2.47l11.93-6.27a2.34,2.34,0,0,1,2.18,0l11.93,6.27a2.34,2.34,0,0,0,3.4-2.47L160,337.39a2.36,2.36,0,0,1,.67-2.08Z"></path><path class="cls-2" d="M216.22,306.59l6,12.09A2.34,2.34,0,0,0,224,320l13.34,1.94a2.35,2.35,0,0,1,1.3,4l-9.65,9.4a2.37,2.37,0,0,0-.68,2.08l2.28,13.28a2.34,2.34,0,0,1-3.4,2.47l-11.93-6.27a2.34,2.34,0,0,0-2.18,0l-11.93,6.27a2.34,2.34,0,0,1-3.4-2.47L200,337.38a2.34,2.34,0,0,0-.68-2.08l-9.65-9.4a2.35,2.35,0,0,1,1.3-4L204.29,320a2.34,2.34,0,0,0,1.76-1.28l6-12.09A2.34,2.34,0,0,1,216.22,306.59Z"></path><path class="cls-2" d="M238.59,325.9a2.35,2.35,0,0,0-1.3-4l-6.07-.88-6.7,6.54a2.35,2.35,0,0,0-.68,2.07l2.28,13.29a2.34,2.34,0,0,1-3.4,2.47l-11.93-6.27a2.34,2.34,0,0,0-2.18,0l-9.81,5.15-1.1,6.4a2.34,2.34,0,0,0,3.4,2.47L213,346.87a2.34,2.34,0,0,1,2.18,0l11.93,6.27a2.34,2.34,0,0,0,3.4-2.47l-2.28-13.29a2.35,2.35,0,0,1,.68-2.07Z"></path></svg>