<svg id="Layer_1" data-name="Layer 1" xmlns="http://www.w3.org/2000/svg" viewBox="0 0 500 500" width="500" height="500" class="illustration"><defs><style>.cls-1{fill:#e2e2e2;}.cls-2{fill:#24285b;}.cls-3{fill:#13183f;}.cls-4{fill:#c3c7c9;}.cls-5{fill:#f2f2f2;}.cls-6{fill:#db2868;}.cls-7{fill:#f0457d;}.cls-8{fill:#fff;}.cls-9{fill:#0099f5;}.cls-10{fill:#0086f4;}</style></defs><title>Digital Nomad</title><rect class="cls-1" x="32.54" y="60.39" width="434.93" height="316.31" rx="17.34"></rect><path class="cls-2" d="M40.47,56.8H459.53a7.94,7.94,0,0,1,7.94,7.94V310.21a0,0,0,0,1,0,0H32.54a0,0,0,0,1,0,0V64.74A7.94,7.94,0,0,1,40.47,56.8Z"></path><circle class="cls-2" cx="250.46" cy="343.94" r="8.86"></circle><path class="cls-3" d="M255.75,351a8.86,8.86,0,0,0-13.5-10.42A8.86,8.86,0,1,1,255.75,351Z"></path><polygon class="cls-1" points="305.71 376.7 195.19 376.7 186.2 437.81 314.7 437.81 305.71 376.7"></polygon><polygon class="cls-4" points="191.97 398.58 308.93 398.58 305.71 376.7 195.19 376.7 191.97 398.58"></polygon><rect class="cls-4" x="176.31" y="436.01" width="148.27" height="7.19" rx="1.54"></rect><rect class="cls-5" x="49.61" y="74.77" width="399.88" height="218.36"></rect><polygon class="cls-6" points="112.32 111.31 24.05 111.31 55.67 64.95 133.41 64.95 112.32 111.31"></polygon><path class="cls-7" d="M24.05,111.31h88.27a0,0,0,0,1,0,0v21.91a44.14,44.14,0,0,1-44.14,44.14h0a44.14,44.14,0,0,1-44.14-44.14V111.31a0,0,0,0,1,0,0Z"></path><polygon class="cls-1" points="200.59 111.31 112.32 111.31 133.41 64.95 211.13 64.95 200.59 111.31"></polygon><path class="cls-8" d="M112.32,111.31h88.27a0,0,0,0,1,0,0v21.91a44.14,44.14,0,0,1-44.14,44.14h0a44.14,44.14,0,0,1-44.14-44.14V111.31A0,0,0,0,1,112.32,111.31Z"></path><polygon class="cls-6" points="299.41 111.31 200.59 111.31 211.13 64.95 288.87 64.95 299.41 111.31"></polygon><path class="cls-7" d="M200.59,111.31h98.81a0,0,0,0,1,0,0v21.91a44.14,44.14,0,0,1-44.14,44.14H244.73a44.14,44.14,0,0,1-44.14-44.14V111.31a0,0,0,0,1,0,0Z"></path><polygon class="cls-1" points="387.68 111.31 299.41 111.31 288.87 64.95 366.6 64.95 387.68 111.31"></polygon><path class="cls-8" d="M299.41,111.31h88.27a0,0,0,0,1,0,0v21.91a44.14,44.14,0,0,1-44.14,44.14h0a44.14,44.14,0,0,1-44.14-44.14V111.31A0,0,0,0,1,299.41,111.31Z"></path><polygon class="cls-6" points="475.95 111.31 387.68 111.31 366.6 64.95 444.32 64.95 475.95 111.31"></polygon><path class="cls-7" d="M387.68,111.31h88.27a0,0,0,0,1,0,0v21.91a44.14,44.14,0,0,1-44.14,44.14h0a44.14,44.14,0,0,1-44.14-44.14V111.31a0,0,0,0,1,0,0Z"></path><path class="cls-9" d="M219.65,211.43h77.2a2.57,2.57,0,0,1,2.45,3.33l-10.87,34.63H235.19a6.37,6.37,0,0,1-6.14-4.65Z"></path><circle class="cls-9" cx="240.2" cy="267.48" r="7.46"></circle><circle class="cls-9" cx="268.86" cy="267.48" r="7.46"></circle><path class="cls-10" d="M238.23,211.43s3.05,19.89,5.88,23.15,48.18,2.53,48.18,2.53l-3.86,12.28H230l-10.31-38Z"></path><path class="cls-2" d="M290.56,253.26H234.3a9.6,9.6,0,0,1-9.25-7.07l-11.12-41.07a.76.76,0,0,0-.74-.57h-9.64a3.88,3.88,0,0,1,0-7.75h9.64a8.53,8.53,0,0,1,8.22,6.29l11.12,41.07a1.84,1.84,0,0,0,1.77,1.36h56.26a3.87,3.87,0,1,1,0,7.74Z"></path></svg>