<svg id="Layer_1" data-name="Layer 1" xmlns="http://www.w3.org/2000/svg" viewBox="0 0 500 500" width="500" height="500" class="illustration"><defs><style>.cls-1{fill:#24285b;}.cls-2{fill:#e2e2e2;}.cls-3{fill:#f2f2f2;}.cls-4{fill:#db2868;}.cls-5{fill:#f0457d;}.cls-6{fill:#fff;}.cls-7{fill:#0099f5;}.cls-8{fill:#0086f4;}</style></defs><title>ECommerce</title><rect class="cls-1" x="122.47" y="41.61" width="260" height="413" rx="31.58"></rect><rect class="cls-2" x="137.04" y="59.66" width="231.43" height="379.03" rx="31.58"></rect><rect class="cls-3" x="136.55" y="58.32" width="208.92" height="370.29" rx="31.58"></rect><path class="cls-1" d="M185.47,51.61h133a0,0,0,0,1,0,0v7.61a26.39,26.39,0,0,1-26.39,26.39H211.86a26.39,26.39,0,0,1-26.39-26.39V51.61a0,0,0,0,1,0,0Z"></path><polygon class="cls-4" points="176.08 84.14 126.92 84.14 144.53 58.32 187.82 58.32 176.08 84.14"></polygon><path class="cls-5" d="M126.92,84.14h49.16a0,0,0,0,1,0,0v12.2a24.58,24.58,0,0,1-24.58,24.58h0a24.58,24.58,0,0,1-24.58-24.58V84.14a0,0,0,0,1,0,0Z"></path><polygon class="cls-2" points="225.24 84.14 176.08 84.14 187.82 58.32 231.11 58.32 225.24 84.14"></polygon><path class="cls-6" d="M176.08,84.14h49.16a0,0,0,0,1,0,0v12.2a24.58,24.58,0,0,1-24.58,24.58h0a24.58,24.58,0,0,1-24.58-24.58V84.14A0,0,0,0,1,176.08,84.14Z"></path><polygon class="cls-4" points="280.27 84.14 225.24 84.14 231.11 58.32 274.4 58.32 280.27 84.14"></polygon><path class="cls-5" d="M225.24,84.14h55a0,0,0,0,1,0,0v9.27a27.52,27.52,0,0,1-27.52,27.52h0a27.52,27.52,0,0,1-27.52-27.52V84.14A0,0,0,0,1,225.24,84.14Z"></path><polygon class="cls-2" points="329.43 84.14 280.27 84.14 274.4 58.32 317.69 58.32 329.43 84.14"></polygon><path class="cls-6" d="M280.27,84.14h49.16a0,0,0,0,1,0,0v12.2a24.58,24.58,0,0,1-24.58,24.58h0a24.58,24.58,0,0,1-24.58-24.58V84.14a0,0,0,0,1,0,0Z"></path><polygon class="cls-4" points="378.59 84.14 329.43 84.14 317.69 58.32 360.98 58.32 378.59 84.14"></polygon><path class="cls-5" d="M329.43,84.14h49.16a0,0,0,0,1,0,0v12.2A24.58,24.58,0,0,1,354,120.93h0a24.58,24.58,0,0,1-24.58-24.58V84.14A0,0,0,0,1,329.43,84.14Z"></path><path class="cls-7" d="M213.59,247.37h99.1a3.3,3.3,0,0,1,3.15,4.29l-13.95,44.45H233.54a8.19,8.19,0,0,1-7.89-6Z"></path><circle class="cls-7" cx="239.97" cy="319.34" r="9.58"></circle><circle class="cls-7" cx="276.75" cy="319.34" r="9.58"></circle><path class="cls-8" d="M237.44,247.37s3.91,25.54,7.54,29.73,61.85,3.25,61.85,3.25l-4.94,15.76H226.82l-13.23-48.74Z"></path><path class="cls-1" d="M304.62,301.08H232.39A12.32,12.32,0,0,1,220.52,292l-14.27-52.72a1,1,0,0,0-1-.74H192.92a5,5,0,0,1,0-9.94h12.37a11,11,0,0,1,10.56,8.08l14.27,52.72a2.36,2.36,0,0,0,2.27,1.74h72.23a5,5,0,0,1,0,9.94Z"></path></svg>