<svg xmlns="http://www.w3.org/2000/svg" viewBox="0 0 500 500" width="500" height="500" class="illustration"><g style="isolation: isolate;"><g id="Layer_1" data-name="Layer 1"><polyline points="250.8 150.44 250.8 295.38 133.36 356.89" fill="none" stroke="#24285b" stroke-miterlimit="10" stroke-width="6"></polyline><polyline points="250.8 150.44 250.8 295.38 368.23 356.89" fill="none" stroke="#24285b" stroke-miterlimit="10" stroke-width="6"></polyline><path d="M193.18,448.46v6.84H60.56C57.29,424,86.48,405,115,405c14.75.16,35.46-1.49,49,5.07C179.64,416.44,193.31,430.89,193.18,448.46Z" fill="#0099f5"></path><path d="M193.18,448.46c.13-17.57-13.54-32-29.12-38.37-13.56-6.56-34.27-4.91-49-5.07a65.15,65.15,0,0,0-25.83,5.28,64.68,64.68,0,0,1,6.52-.32c14.75.16,35.46-1.5,49,5.06,15.58,6.35,29.25,20.8,29.12,38.37v1.89h19.31Z" opacity="0.09" style="isolation: isolate;"></path><path d="M125.5,427.48l-13.23,8a1.59,1.59,0,0,1-2.2-.56L95.76,410.4a1.59,1.59,0,0,1,.63-2.21l13.18-6.9a1.59,1.59,0,0,1,2.09.57L126,425.29A1.58,1.58,0,0,1,125.5,427.48Z" opacity="0.09" style="isolation: isolate;"></path><path d="M128.25,427.48l13.24,8a1.59,1.59,0,0,0,2.2-.56L158,410.4a1.59,1.59,0,0,0-.63-2.21l-13.17-6.9a1.6,1.6,0,0,0-2.1.57l-14.37,23.43A1.59,1.59,0,0,0,128.25,427.48Z" opacity="0.09" style="isolation: isolate;"></path><path d="M139.17,425.78l-12.29-4.52h0l-12.29,4.52,8.5,15-3.19,14.54h14l-3.19-14.54Z" fill="#24285b"></path><path d="M126.88,423.57a14.64,14.64,0,0,1-14.65-14.65V370c.32-19.25,29-19.27,29.3,0v38.95A14.66,14.66,0,0,1,126.88,423.57Z" fill="#ffbeb3"></path><path d="M140.82,413.42c-4.16,13.45-23.86,13.29-27.89,0C118.85,421.93,134.64,422.22,140.82,413.42Z" fill="#f9a498"></path><path d="M125.62,424.33l-12.13,7.35a1.44,1.44,0,0,1-2-.51l-13.11-22.5a1.45,1.45,0,0,1,.58-2L111,400.33a1.45,1.45,0,0,1,1.92.52l13.17,21.47A1.46,1.46,0,0,1,125.62,424.33Z" fill="#0099f5"></path><path d="M128.14,424.33l12.13,7.35a1.44,1.44,0,0,0,2-.51l13.12-22.5a1.45,1.45,0,0,0-.59-2l-12.07-6.32a1.44,1.44,0,0,0-1.91.52l-13.18,21.47A1.46,1.46,0,0,0,128.14,424.33Z" fill="#0099f5"></path><path d="M97.72,355.58a7.1,7.1,0,0,0-8.53-5.72c-4.53,1-4.55,5.22-3.86,8.7,0,.18,2.27,9.57,3.58,11.54s3.21,5.73,6.4,4.66c2.1-.7,3.34-4.46,3.84-7.17S97.72,355.58,97.72,355.58Z" fill="#ffbeb3"></path><path d="M155.41,355.43a7.1,7.1,0,0,1,8.53-5.71c4.54,1,5,5.34,4.3,8.82,0,.18-2.45,8.87-3.58,11.54-.93,2.21-3.47,6.09-6.76,4.73-2.05-.85-3.43-4.65-3.92-7.36S155.41,355.43,155.41,355.43Z" fill="#ffbeb3"></path><path d="M159.84,329.45c0-15.06-9.33-30.18-34-30.18s-33.68,16.54-33.68,31.61c0,.79-.08,41.76,4.72,51.17s18,19,29.8,19c12.9.06,24.49-8.23,29.9-19S159.84,329.45,159.84,329.45Z" fill="#ffbeb3"></path><path d="M101.62,332.85l.66.46c.67.64-2.72,8.2-1.73,8.24,4.89,1,10.76-9.57,15.55-8.09,8.42,2.62,24.25,23.84,39.79,23.43,4.09-3.94,4-27.44,4-27.44,0-15.06-9.33-30.18-34-30.18-20.47,0-30.12,11.36-32.83,23.82A15.43,15.43,0,0,1,101.62,332.85Z" fill="#f9a498"></path><path d="M155.43,384c0-.09.12-.17.17-.25l-.85.58C155,384.26,155.2,384.14,155.43,384Z" fill="#efe8e4" style="mix-blend-mode: multiply;"></path><path d="M132.24,397.92c-11.8-.05-25-9.65-29.8-19.05s-4.72-50.37-4.72-51.17a32.76,32.76,0,0,1,6.09-19.46,34.86,34.86,0,0,1,1.55-3.62c-9.42,6.1-13.24,16.47-13.24,26.26,0,.79-.08,41.76,4.72,51.17s18,19,29.8,19a32.08,32.08,0,0,0,18.29-5.89A31.06,31.06,0,0,1,132.24,397.92Z" fill="#f9a498"></path><path d="M165.37,325.86c-3-16.58-16.59-28.61-38.73-28.47s-36.6,13.67-39.5,29a131,131,0,0,0-1.69,26.53c3.74-3.08,5.28-3.48,7.09-2.76,1.24,13.55,4.18,13.35,4.18,13.35s.28-9.2.88-15.28,10.55-7.18,15.53-17.7c15.75-.68,25.7,19.5,43,20.6-1.71,10,2.07,14,2.07,14s.4-8.25,1.8-12.16a4.17,4.17,0,0,1,6.63-1.93C167.47,344.82,167.05,335,165.37,325.86Z" fill="#9c5631"></path><g opacity="0.5" style="mix-blend-mode: soft-light;"><path d="M165.37,325.86c-3-16.58-16.59-28.61-38.73-28.47-19.38.12-32.93,10.56-37.92,23.5,6.22-10.64,18.67-18.63,35.6-18.73C146.47,302,160,314,163.05,330.63a100.16,100.16,0,0,1,1.65,19.55,4.15,4.15,0,0,1,1.91.84C167.47,344.82,167.05,335,165.37,325.86Z" fill="#fff"></path></g><g opacity="0.1" style="mix-blend-mode: multiply;"><path d="M113.13,322.67c-5,10.52-21,20.42-27.68,22.39,0-.34,0-.74,0-1.11a88.31,88.31,0,0,0,0,9c3.74-3.08,5.28-3.48,7.09-2.76,1.24,13.55,4.18,13.35,4.18,13.35s.28-9.2.88-15.28,10.55-7.18,15.53-17.7c15.68-.68,25.62,19.31,42.76,20.57C143.25,346.74,128.88,322,113.13,322.67Z" fill="#afaaa8"></path></g><path d="M439,448.46v6.84H306.39C303.12,424,332.31,405,360.87,405c14.75.16,35.45-1.49,49,5.07C425.47,416.44,439.14,430.89,439,448.46Z" fill="#f0457d"></path><path d="M439,448.46c.13-17.57-13.54-32-29.13-38.37-13.56-6.56-34.26-4.91-49-5.07A65.15,65.15,0,0,0,335,410.3a64.4,64.4,0,0,1,6.52-.32c14.75.16,35.45-1.5,49,5.06,15.59,6.35,29.26,20.8,29.13,38.37v1.89H439Z" opacity="0.09" style="isolation: isolate;"></path><path d="M371.33,427.48l-13.24,8a1.59,1.59,0,0,1-2.2-.56L341.58,410.4a1.6,1.6,0,0,1,.64-2.21l13.17-6.9a1.58,1.58,0,0,1,2.09.57l14.38,23.43A1.59,1.59,0,0,1,371.33,427.48Z" opacity="0.09" style="isolation: isolate;"></path><path d="M374.07,427.48l13.24,8a1.59,1.59,0,0,0,2.2-.56l14.31-24.55a1.58,1.58,0,0,0-.64-2.21L390,401.29a1.59,1.59,0,0,0-2.09.57l-14.38,23.43A1.59,1.59,0,0,0,374.07,427.48Z" opacity="0.09" style="isolation: isolate;"></path><path d="M385,425.78l-12.3-4.52h0l-12.3,4.52,8.51,15-3.19,14.54h14l-3.19-14.54Z" fill="#24285b"></path><path d="M372.7,423.57a14.65,14.65,0,0,1-14.65-14.65V370c.33-19.25,29-19.27,29.3,0v38.95A14.66,14.66,0,0,1,372.7,423.57Z" fill="#ffbeb3"></path><path d="M386.64,413.42c-4.16,13.45-23.85,13.29-27.89,0C364.68,421.93,380.47,422.22,386.64,413.42Z" fill="#f9a498"></path><path d="M371.45,424.33l-12.13,7.35a1.45,1.45,0,0,1-2-.51l-13.11-22.5a1.45,1.45,0,0,1,.58-2l12.07-6.32a1.45,1.45,0,0,1,1.92.52l13.17,21.47A1.45,1.45,0,0,1,371.45,424.33Z" fill="#f0457d"></path><path d="M374,424.33l12.14,7.35a1.44,1.44,0,0,0,2-.51l13.11-22.5a1.45,1.45,0,0,0-.58-2l-12.07-6.32a1.45,1.45,0,0,0-1.92.52l-13.17,21.47A1.46,1.46,0,0,0,374,424.33Z" fill="#f0457d"></path><path d="M343.54,355.58a7.09,7.09,0,0,0-8.53-5.72c-4.53,1-4.55,5.22-3.86,8.7,0,.18,2.27,9.57,3.58,11.54s3.21,5.73,6.4,4.66c2.11-.7,3.35-4.46,3.85-7.17S343.54,355.58,343.54,355.58Z" fill="#ffbeb3"></path><path d="M401.24,355.43a7.09,7.09,0,0,1,8.53-5.71c4.53,1,5,5.34,4.29,8.82,0,.18-2.45,8.87-3.58,11.54-.93,2.21-3.46,6.09-6.75,4.73-2.06-.85-3.43-4.65-3.93-7.36S401.24,355.43,401.24,355.43Z" fill="#ffbeb3"></path><path d="M405.67,329.45c0-15.06-9.34-30.18-34.05-30.18s-33.68,16.54-33.68,31.61c0,.79-.07,41.76,4.72,51.17s18,19,29.8,19c12.9.06,24.49-8.23,29.91-19S405.67,329.45,405.67,329.45Z" fill="#ffbeb3"></path><path d="M347.45,332.85l.65.46c.68.64-2.72,8.2-1.73,8.24,4.9,1,10.77-9.57,15.55-8.09,8.42,2.62,24.26,23.84,39.8,23.43,4.08-3.94,3.95-27.44,3.95-27.44,0-15.06-9.34-30.18-34.05-30.18-20.47,0-30.12,11.36-32.83,23.82A15.47,15.47,0,0,1,347.45,332.85Z" fill="#f9a498"></path><path d="M401.25,384c.05-.09.12-.17.17-.25l-.85.58Z" fill="#efe8e4" style="mix-blend-mode: multiply;"></path><path d="M378.06,397.92c-11.79-.05-25-9.65-29.8-19.05s-4.72-50.37-4.72-51.17a32.77,32.77,0,0,1,6.1-19.46,31,31,0,0,1,1.55-3.62c-9.43,6.1-13.25,16.47-13.25,26.26,0,.79-.07,41.76,4.72,51.17s18,19,29.8,19a32.06,32.06,0,0,0,18.29-5.89A31,31,0,0,1,378.06,397.92Z" fill="#f9a498"></path><path d="M411.19,325.86c-3-16.58-16.58-28.61-38.73-28.47s-36.59,13.67-39.49,29a130.29,130.29,0,0,0-1.7,26.53c3.74-3.08,5.28-3.48,7.09-2.76,1.24,13.55,4.19,13.35,4.19,13.35s.27-9.2.87-15.28S354,341.07,359,330.55c15.76-.68,25.71,19.5,43,20.6-1.7,10,2.08,14,2.08,14s.4-8.25,1.79-12.16a4.17,4.17,0,0,1,6.63-1.93C413.29,344.82,412.87,335,411.19,325.86Z" fill="#9c5631"></path><g opacity="0.5" style="mix-blend-mode: soft-light;"><path d="M411.19,325.86c-3-16.58-16.58-28.61-38.73-28.47-19.38.12-32.93,10.56-37.91,23.5,6.21-10.64,18.67-18.63,35.59-18.73,22.15-.14,35.69,11.88,38.74,28.47a100.11,100.11,0,0,1,1.64,19.55,4.11,4.11,0,0,1,1.91.84C413.29,344.82,412.87,335,411.19,325.86Z" fill="#fff"></path></g><g opacity="0.1" style="mix-blend-mode: multiply;"><path d="M359,322.67c-5,10.52-21,20.42-27.68,22.39,0-.34,0-.74,0-1.11a88.55,88.55,0,0,0,0,9c3.74-3.08,5.28-3.48,7.09-2.76,1.24,13.55,4.19,13.35,4.19,13.35s.27-9.2.87-15.28S354,341.07,359,330.55c15.69-.68,25.63,19.31,42.77,20.57C389.08,346.74,374.71,322,359,322.67Z" fill="#afaaa8"></path></g><path d="M316.09,193.94v6.84H183.47C180.2,169.51,209.4,150.43,238,150.5c14.74.16,35.45-1.49,49,5.07C302.55,161.92,316.23,176.37,316.09,193.94Z" fill="#ffd44d"></path><path d="M316.09,193.94c.14-17.57-13.54-32-29.12-38.37-13.56-6.56-34.27-4.91-49-5.07a65.16,65.16,0,0,0-25.84,5.28,64.74,64.74,0,0,1,6.53-.32c14.74.16,35.45-1.5,49,5.06,15.58,6.35,29.26,20.8,29.12,38.37v1.89h19.31Z" opacity="0.09" style="isolation: isolate;"></path><path d="M248.42,173l-13.24,8a1.59,1.59,0,0,1-2.2-.56l-14.31-24.55a1.58,1.58,0,0,1,.64-2.21l13.17-6.9a1.59,1.59,0,0,1,2.09.57L249,170.77A1.59,1.59,0,0,1,248.42,173Z" opacity="0.09" style="isolation: isolate;"></path><path d="M251.16,173l13.24,8a1.59,1.59,0,0,0,2.2-.56l14.31-24.55a1.6,1.6,0,0,0-.64-2.21l-13.17-6.9a1.58,1.58,0,0,0-2.09.57l-14.38,23.43A1.59,1.59,0,0,0,251.16,173Z" opacity="0.09" style="isolation: isolate;"></path><path d="M262.08,171.26l-12.29-4.52h0l-12.29,4.52,8.51,15-3.19,14.54h14l-3.19-14.54Z" fill="#24285b"></path><path d="M249.79,169.05a14.65,14.65,0,0,1-14.65-14.65V115.45c.32-19.25,29-19.27,29.3,0v39A14.66,14.66,0,0,1,249.79,169.05Z" fill="#ffbeb3"></path><path d="M263.73,158.9c-4.16,13.46-23.85,13.29-27.89,0C241.76,167.41,257.56,167.7,263.73,158.9Z" fill="#f9a498"></path><path d="M248.54,169.81l-12.13,7.36a1.46,1.46,0,0,1-2-.52l-13.11-22.5a1.45,1.45,0,0,1,.58-2l12.07-6.32a1.45,1.45,0,0,1,1.92.52L249,167.8A1.46,1.46,0,0,1,248.54,169.81Z" fill="#ffd44d"></path><path d="M251.05,169.81l12.13,7.36a1.46,1.46,0,0,0,2-.52l13.11-22.5a1.45,1.45,0,0,0-.58-2l-12.07-6.32a1.45,1.45,0,0,0-1.92.52L250.57,167.8A1.45,1.45,0,0,0,251.05,169.81Z" fill="#ffd44d"></path><path d="M220.63,101.06a7.1,7.1,0,0,0-8.53-5.72c-4.53,1-4.55,5.22-3.86,8.7,0,.18,2.27,9.57,3.58,11.54s3.21,5.73,6.4,4.67c2.11-.71,3.35-4.47,3.85-7.18S220.63,101.06,220.63,101.06Z" fill="#ffbeb3"></path><path d="M278.33,100.91a7.09,7.09,0,0,1,8.53-5.71c4.53,1,5,5.35,4.29,8.82,0,.18-2.45,8.87-3.58,11.55-.93,2.2-3.46,6.08-6.76,4.72-2.05-.85-3.42-4.65-3.92-7.36S278.33,100.91,278.33,100.91Z" fill="#ffbeb3"></path><path d="M282.75,74.93c0-15.06-9.33-30.18-34-30.18S215,61.3,215,76.36c0,.79-.08,41.76,4.72,51.17s18,19,29.8,19c12.9.06,24.49-8.23,29.91-19S282.75,74.93,282.75,74.93Z" fill="#ffbeb3"></path><path d="M224.54,78.33l.65.46c.67.64-2.72,8.2-1.73,8.24,4.89,1,10.77-9.57,15.55-8.09,8.42,2.62,24.26,23.84,39.8,23.43,4.08-3.94,3.94-27.44,3.94-27.44,0-15.06-9.33-30.18-34-30.18-20.47,0-30.12,11.36-32.83,23.82A15.47,15.47,0,0,1,224.54,78.33Z" fill="#f9a498"></path><path d="M278.34,129.52c.05-.09.12-.17.17-.25l-.85.58C277.89,129.74,278.11,129.62,278.34,129.52Z" fill="#efe8e4" style="mix-blend-mode: multiply;"></path><path d="M255.15,143.4c-11.79-.05-25-9.65-29.8-19.05S220.63,74,220.63,73.18a32.77,32.77,0,0,1,6.1-19.46,31.82,31.82,0,0,1,1.54-3.61C218.85,56.2,215,66.57,215,76.36c0,.79-.08,41.76,4.72,51.17s18,19,29.8,19a32.06,32.06,0,0,0,18.29-5.89A31,31,0,0,1,255.15,143.4Z" fill="#f9a498"></path><path d="M288.28,71.34c-3-16.58-16.58-28.61-38.73-28.47s-36.6,13.67-39.5,29a131,131,0,0,0-1.69,26.53c3.74-3.08,5.28-3.48,7.09-2.76,1.24,13.55,4.19,13.35,4.19,13.35s.27-9.2.87-15.28S231.06,86.55,236,76c15.76-.68,25.71,19.5,43,20.6-1.71,10,2.08,14,2.08,14s.4-8.25,1.79-12.16a4.17,4.17,0,0,1,6.63-1.93C290.38,90.3,290,80.5,288.28,71.34Z" fill="#9c5631"></path><g opacity="0.5" style="mix-blend-mode: soft-light;"><path d="M288.28,71.34c-3-16.58-16.58-28.61-38.73-28.47-19.38.12-32.93,10.56-37.91,23.5,6.21-10.64,18.66-18.63,35.59-18.73,22.15-.14,35.69,11.88,38.73,28.47a99.39,99.39,0,0,1,1.65,19.55,4.26,4.26,0,0,1,1.91.84C290.38,90.3,290,80.5,288.28,71.34Z" fill="#fff"></path></g><g opacity="0.1" style="mix-blend-mode: multiply;"><path d="M236,68.16c-5,10.51-21,20.41-27.68,22.38,0-.34,0-.74-.05-1.1-.12,3.28-.12,6.43.05,9,3.74-3.08,5.28-3.48,7.09-2.76,1.24,13.55,4.19,13.35,4.19,13.35s.27-9.2.87-15.28S231.06,86.55,236,76c15.69-.68,25.63,19.31,42.77,20.58C266.16,92.22,251.8,67.47,236,68.16Z" fill="#afaaa8"></path></g><circle cx="248.88" cy="291.97" r="43" fill="#ffd44d"></circle><circle cx="248.88" cy="291.97" r="31.72" fill="#f9bb0d"></circle><path d="M248.08,307v-2.65a15.7,15.7,0,0,1-8.91-3.95l2.64-3.15a12.45,12.45,0,0,0,6.27,3.15v-7a14.72,14.72,0,0,1-6-2.57,5.83,5.83,0,0,1-1.91-4.73,6.63,6.63,0,0,1,2.19-5.13,8.89,8.89,0,0,1,5.71-2.17V277h2.32v1.85a15.05,15.05,0,0,1,7.53,2.71l-2.35,3.34a11.71,11.71,0,0,0-5.18-2.11v6.81h.11a14.87,14.87,0,0,1,6.12,2.65,6,6,0,0,1,1.95,4.83,6.54,6.54,0,0,1-2.24,5.16,9.35,9.35,0,0,1-5.94,2.18V307Zm-2.55-23.38a2.56,2.56,0,0,0-.93,2,2.53,2.53,0,0,0,.73,1.92,7.27,7.27,0,0,0,2.75,1.36v-6.27A4.28,4.28,0,0,0,245.53,283.61Zm7.62,15.88a2.79,2.79,0,0,0,.22-4.11,7.86,7.86,0,0,0-3-1.4v6.52A5.1,5.1,0,0,0,253.15,299.49Z" fill="#fff"></path></g></g></svg>